HIERARCHY
ROOT Hips
{
	OFFSET	0.00	0.00	0.00
	CHANNELS 6 Xposition Yposition Zposition Zrotation Xrotation Yrotation
	JOINT Spine
	{
		OFFSET	 0.00	0.01	 0.00
		CHANNELS 3 Zrotation Xrotation Yrotation
		JOINT Spine1
		{
			OFFSET	 0.00	 2.45913012437421	 0.00
			CHANNELS 3 Zrotation Xrotation Yrotation
            JOINT Neck
            {
                OFFSET	 0.00	 2.48462964506057	 0.00
                CHANNELS 3 Zrotation Xrotation Yrotation
                JOINT Head
                {
                    OFFSET	 0.00	 0.927524780924562	 0.00
                    CHANNELS 3 Zrotation Xrotation Yrotation
                    End Site 
                    {
                        OFFSET	 0.00	 1.14999962169752	 0.00
                    }
                }
            }
			JOINT LeftShoulder
			{
				OFFSET	 0.00	 2.48462964506057	 0.00
				CHANNELS 3 Zrotation Xrotation Yrotation
				JOINT LeftUpArm
				{
					OFFSET	 0.00	 1.24881979654096	 0.00
					CHANNELS 3 Zrotation Xrotation Yrotation
					JOINT LeftForeArm
					{
						OFFSET	 0.00	2.59758046908119	 0.00
						CHANNELS 3 Zrotation Xrotation Yrotation
						JOINT LeftHand
						{
							OFFSET	 0.00	2.45542024364365	 0.00
							CHANNELS 3 Zrotation Xrotation Yrotation
							JOINT LeftHandThumb 
							{
								OFFSET	 0.00	0.00	 0.00
								CHANNELS 3 Zrotation Xrotation Yrotation
								End Site
								{
									OFFSET	 0.00	0.00	1.00000003353624
								}
							}
							JOINT L_Wrist_End 
							{
								OFFSET	 0.00	0.99999967115358	 0.00
								CHANNELS 3 Zrotation Xrotation Yrotation
								End Site 
								{
									OFFSET	 0.00	 0.00	 0.00
								}
							}
						}
					}
				}
			}
			JOINT RightShoulder
			{
				OFFSET	 0.00	 2.48462964506057	 0.00
				CHANNELS 3 Zrotation Xrotation Yrotation
				JOINT RightUpArm
				{
					OFFSET	 0.00	 1.24881979654096	 0.00
					CHANNELS 3 Zrotation Xrotation Yrotation
					JOINT RightForeArm
					{
						OFFSET	 0.00	2.59758046908119	 0.00
						CHANNELS 3 Zrotation Xrotation Yrotation
						JOINT RightHand
						{
							OFFSET	 0.00	2.45542024364365	 0.00
							CHANNELS 3 Zrotation Xrotation Yrotation
							JOINT RightHandThumb 
							{
								OFFSET	 0.00	0.00	 0.00
								CHANNELS 3 Zrotation Xrotation Yrotation
								End Site
								{
									OFFSET	 0.00	0.00	1.00000003353624
								}
							}
							JOINT R_Wrist_End 
							{
								OFFSET	 0.00	0.99999967115358	 0.00
								CHANNELS 3 Zrotation Xrotation Yrotation
								End Site 
								{
									OFFSET	 0.00	 0.00	 0.00
								}
							}
						}
					}
				}
			}
		}
	}
	JOINT LeftUpLeg
	{
		OFFSET	 1.2719394002717	 0.00	 0.00
		CHANNELS 3 Zrotation Xrotation Yrotation
		JOINT LeftLowLeg
		{
			OFFSET	 0.00	-4.3429100912261	 0.00
			CHANNELS 3 Zrotation Xrotation Yrotation
			JOINT LeftFoot
			{
				OFFSET	 0.00	-4.48767017425826	 0.00
				CHANNELS 3 Zrotation Xrotation Yrotation
				JOINT LeftToeBase
                {
                    OFFSET	 0.00	0.00	 1.51507020887566
                    CHANNELS 3 Zrotation Xrotation Yrotation
                    End Site 
                    {
                        OFFSET	 0.00	0.00	 0.75000010571191
                    }
                }
			}
		}
	}
	JOINT RightUpLeg
	{
		OFFSET	 -1.2719393604653	 0.00	 0.00
		CHANNELS 3 Zrotation Xrotation Yrotation
		JOINT RightLowLeg
		{
			OFFSET	 0.00	-4.3429100912261	 0.00
			CHANNELS 3 Zrotation Xrotation Yrotation
			JOINT RightFoot
			{
				OFFSET	 0.00	-4.48767017425826	 0.00
				CHANNELS 3 Zrotation Xrotation Yrotation
				JOINT RightToeBase
                {
                    OFFSET	 0.00	0.00	 1.51507020887566
                    CHANNELS 3 Zrotation Xrotation Yrotation
                    End Site 
                    {
                        OFFSET	 0.00	0.00	 0.749999965609858
                    }
                }   
			}
		}
	}
}
MOTION 
Frames:	13 
Frame Time: 0.02 
 -2.334199981689453 -1.868179931640625 9.356290283203125 -159.944 71.9167 167.862 5.97341 -28.976 0.122355 0.257764 11.7142 -0.356681 6.26477 27.6406 0.391697 -60.4836 -77.3861 672.617 -120.3647 0.276062 9.95053 -44.6417 5.53026 -348.808 0.0 9.67476 0.0 3.09493 -10.6783 27.0049 0.0 0.0 0.0 0.0 0.0 0.0 121.4636 -2.08165 -4.60944 41.6537 4.49928 -16.5165 0.0 15.3522 0.0 -0.611797 -5.69747 -10.5091 0.0 0.0 0.0 0.0 0.0 0.0 -1.35688 -11.4963 -23.11 0.0 5.35824 0.0 2.63655 -3.844101 24.1923 0.0 -11.24042 0.0 9.3773 -11.0046 392.589 0.0 2.4614 0.0 2.6334 3.0165005 -29.9306 0.0 -17.11553 0.0 
  -2.334530029296875 -1.8565499877929688 9.356420288085937 -159.657 71.9974 167.868 5.92671 -28.893 0.0441106 0.239719 11.4194 -0.414037 6.11438 28.1154 0.472929 -59.4503 -77.1808 673.752 -120.571304 0.410112 10.1792 -44.0197 6.58762 -348.205 0.0 10.7768 0.0 3.76164 -10.9717 26.2143 0.0 0.0 0.0 0.0 0.0 0.0 121.525 -1.97107 -4.7563 41.4856 5.18988 -16.7596 0.0 15.4686 0.0 -0.679135 -5.63991 -9.9267 0.0 0.0 0.0 0.0 0.0 0.0 -1.36957 -11.5657 -23.3209 0.0 5.47526 0.0 2.5696 -3.8551006 24.0771 0.0 -11.24016 0.0 9.39151 -11.0 392.308 0.0 2.49492 0.0 2.66371 2.9877996 -29.9326 0.0 -17.1246 0.0 
  -2.3331399536132813 -1.8520399475097655 9.357009887695312 -159.663 71.9823 167.857 5.99269 -29.1866 0.194048 0.182067 11.5136 -0.271815 5.96234 28.4682 0.570338 -57.7767 -76.9292 675.569 -120.688 0.673622 10.3238 -43.4861 7.64194 -347.521 0.0 11.8457 0.0 4.62698 -10.6409 25.8929 0.0 0.0 0.0 0.0 0.0 0.0 121.5463 -1.86218 -4.63616 41.367 5.77429 -17.1605 0.0 15.6632 0.0 -0.700015 -5.73545 -10.0726 0.0 0.0 0.0 0.0 0.0 0.0 -1.36548 -11.5726 -23.2173 0.0 5.39934 0.0 2.61471 -3.7805996 24.0316 0.0 -11.2415 0.0 9.38963 -11.054 392.401 0.0 2.52151 0.0 2.72342 2.9799004 -29.9738 0.0 -17.14018 0.0 
  -2.333260040283203 -1.8414399719238281 9.357429809570313 -159.435 72.0579 167.882 5.95419 -29.1865 0.142416 0.126317 11.3135 -0.302419 5.85476 28.957 0.711226 -56.1894 -76.7365 677.322 -120.8991 0.862782 10.4695 -42.8128 8.63274 -347.016 0.0 13.021 0.0 5.45634 -10.1944 25.4894 0.0 0.0 0.0 0.0 0.0 0.0 121.6452 -1.75708 -4.75948 41.1758 6.4682 -17.6693 0.0 15.8448 0.0 -0.983817 -5.65996 -9.96821 0.0 0.0 0.0 0.0 0.0 0.0 -1.38229 -11.6159 -23.4402 0.0 5.47153 0.0 2.56306 -3.7605991 23.9715 0.0 -11.23638 0.0 9.39464 -11.0501 392.19 0.0 2.56051 0.0 2.7557 2.9432 -30.0032 0.0 -17.11515 0.0 
  -2.332469940185547 -1.8344700622558594 9.357780151367187 -159.262 72.12 167.89 5.94406 -29.2706 0.146539 0.0465248 11.1822 -0.289206 5.7851 29.4132 0.852222 -54.2182 -76.5149 679.382 -121.074 1.06176 10.642 -42.1692 9.62815 -346.883 0.0 14.2634 0.0 6.21657 -9.72878 25.0536 0.0 0.0 0.0 0.0 0.0 0.0 121.6428 -1.65003 -4.81425 41.2096 7.21071 -17.4181 0.0 15.7623 0.0 -0.763964 -5.50559 -10.975 0.0 0.0 0.0 0.0 0.0 0.0 -1.39117 -11.6117 -23.6169 0.0 5.47398 0.0 2.53898 -3.7203999 23.9625 0.0 -11.23012 0.0 9.39712 -11.0397 392.081 0.0 2.59813 0.0 2.79347 2.9038 -30.0568 0.0 -17.10642 0.0 
  -2.3300799560546874 -1.8259500122070313 9.358300170898438 -159.018 72.2195 167.879 5.98018 -29.3374 0.18499 -0.104754 11.1175 -0.310302 5.64184 29.8803 1.13721 -52.2918 -76.3566 681.291 -121.2158 1.29644 10.8116 -41.531 10.6191 -346.782 0.0 15.5969 0.0 6.9408 -9.30024 24.3734 0.0 0.0 0.0 0.0 0.0 0.0 121.7034 -1.55186 -4.78795 41.1325 7.82768 -17.8418 0.0 15.9699 0.0 -0.934381 -5.47316 -11.16 0.0 0.0 0.0 0.0 0.0 0.0 -1.41746 -11.5997 -23.8434 0.0 5.52141 0.0 2.53489 -3.6672 23.9552 0.0 -11.23506 0.0 9.37541 -10.9824 391.711 0.0 2.5859 0.0 2.82022 2.9077997 -29.9307 0.0 -17.115921 0.0 
  -2.3289599609375 -1.821490020751953 9.35927978515625 -158.772 72.3932 167.762 6.03326 -29.398 0.259708 -0.296023 11.1207 -0.313391 5.68336 30.2958 1.28456 -50.0717 -76.1695 683.592 -121.2341 1.50141 10.909 -41.0297 11.6099 -346.978 0.0 16.789 0.0 7.46223 -8.73122 23.8324 0.0 0.0 0.0 0.0 0.0 0.0 121.7763 -1.40211 -4.87424 41.0576 8.4127 -18.2074 0.0 16.2309 0.0 -1.04856 -5.29226 -11.241 0.0 0.0 0.0 0.0 0.0 0.0 -1.40587 -11.4353 -23.9429 0.0 5.47365 0.0 2.51463 -3.6044006 23.9305 0.0 -11.24031 0.0 9.37008 -10.8137 391.259 0.0 2.54136 0.0 2.86411 2.9540997 -29.6916 0.0 -17.19878 0.0 
  -2.327209930419922 -1.8151800537109375 9.359749755859376 -158.543 72.4466 167.754 5.98665 -29.5877 0.209062 -0.338573 11.186 -0.303206 5.57873 30.6486 1.54867 -47.9315 -75.956 685.693 -121.2606 1.7203 10.9879 -40.6092 12.568 -347.018 0.0 18.0996 0.0 8.17537 -8.27786 23.0965 0.0 0.0 0.0 0.0 0.0 0.0 121.7357 -1.31802 -4.87824 41.0404 8.99428 -18.5541 0.0 16.5989 0.0 -1.35502 -4.88944 -9.89709 0.0 0.0 0.0 0.0 0.0 0.0 -1.40319 -11.4284 -24.1454 0.0 5.46069 0.0 2.47735 -3.5690994 23.8933 0.0 -11.23525 0.0 9.37712 -10.8023 391.07 0.0 2.57587 0.0 2.87823 2.9280005 -29.7196 0.0 -17.18213 0.0 
  -2.3247000122070314 -1.8055099487304687 9.359739990234376 -158.255 72.3798 167.78 6.15253 -29.4148 0.280088 -0.700432 10.4373 -0.547046 5.55333 31.4341 1.89952 -46.2375 -75.9346 687.318 -121.2259 1.57979 11.2058 -40.1383 13.4468 -347.136 0.0 19.432 0.0 8.86079 -7.98215 22.6062 0.0 0.0 0.0 0.0 0.0 0.0 121.9659 -1.27235 -5.31211 40.809 9.49865 -19.1942 0.0 17.0877 0.0 -2.02747 -4.24338 -7.63502 0.0 0.0 0.0 0.0 0.0 0.0 -1.4119 -11.6185 -24.5327 0.0 5.56573 0.0 2.41562 -3.5867004 23.9154 0.0 -11.2072 0.0 9.42065 -10.9523 391.044 0.0 2.6871 0.0 2.97897 2.8140001 -29.92 0.0 -17.1641 0.0 
  -2.3241600036621093 -1.7988400268554687 9.360570068359374 -158.022 72.681 167.582 6.19312 -29.1648 0.40664 -0.868943 10.1681 -0.50349 5.60913 32.0372 2.06552 -44.5884 -75.8001 688.85 -121.1322 1.72435 11.3553 -39.8891 14.2691 -347.402 0.0 20.6719 0.0 9.47066 -7.56676 21.5949 0.0 0.0 0.0 0.0 0.0 0.0 122.0344 -1.19869 -5.51052 40.7238 9.93131 -19.3786 0.0 17.5722 0.0 -2.04367 -4.17167 -7.8143 0.0 0.0 0.0 0.0 0.0 0.0 -1.41105 -11.3297 -24.5931 0.0 5.51514 0.0 2.4073 -3.5228996 23.9428 0.0 -11.20533 0.0 9.42363 -10.7301 390.992 0.0 2.77911 0.0 3.02886 2.7915 -29.9212 0.0 -17.1916 0.0 
  -2.323399963378906 -1.7920500183105468 9.361810302734375 -157.802 72.8035 167.512 6.12091 -29.2183 0.353859 -0.860703 10.1822 -0.468806 5.44951 32.4543 2.389 -43.0767 -75.6515 690.158 -121.0645 1.87465 11.3187 -39.7495 15.0882 -347.653 0.0 21.7759 0.0 9.95917 -7.22016 20.9562 0.0 0.0 0.0 0.0 0.0 0.0 122.0297 -1.14902 -5.52835 40.561 10.3178 -20.1352 0.0 18.2451 0.0 -2.381 -4.08919 -7.14477 0.0 0.0 0.0 0.0 0.0 0.0 -1.41311 -11.2551 -24.7712 0.0 5.51132 0.0 2.36326 -3.4643002 23.957 0.0 -11.2112 0.0 9.4347 -10.6698 390.812 0.0 2.83729 0.0 3.024 2.8113003 -29.9078 0.0 -17.20344 0.0 
  -2.3224000549316406 -1.783249969482422 9.363090209960937 -157.62 72.9169 167.425 6.06048 -29.2083 0.347314 -0.809579 10.1079 -0.389048 5.30163 32.9019 2.64085 -41.9235 -75.4877 691.085 -121.03 2.10081 11.2786 -39.6653 15.7453 -347.885 0.0 22.8332 0.0 10.3968 -6.91718 20.7114 0.0 0.0 0.0 0.0 0.0 0.0 122.0271 -1.14678 -5.65581 40.4158 10.8032 -19.7974 0.0 18.9599 0.0 -1.73635 -4.81102 -7.64299 0.0 0.0 0.0 0.0 0.0 0.0 -1.42203 -11.2137 -24.8638 0.0 5.54065 0.0 2.34624 -3.4120998 23.9443 0.0 -11.19931 0.0 9.45481 -10.6478 390.803 0.0 2.93864 0.0 3.07211 2.7984 -29.9793 0.0 -17.19488 0.0 
  -2.3233799743652344 -1.769810028076172 9.364190063476563 -157.634 73.0076 167.311 5.99392 -29.0585 0.405334 -0.698014 9.86939 -0.223238 5.15938 33.4432 2.91854 -41.1111 -75.4223 691.708 -121.0639 2.23396 11.3337 -39.5461 16.4052 -348.119 0.0 23.8586 0.0 10.7986 -6.78265 20.6361 0.0 0.0 0.0 0.0 0.0 0.0 121.9779 -1.15026 -5.77374 40.3258 11.1759 -20.3605 0.0 19.3846 0.0 -2.18273 -4.27805 -7.49525 0.0 0.0 0.0 0.0 0.0 0.0 -1.4327 -11.2171 -24.6726 0.0 5.5831 0.0 2.29476 -3.3938007 23.8494 0.0 -11.216021 0.0 9.49249 -10.7342 391.044 0.0 3.14406 0.0 3.22078 2.7228003 -30.011 0.0 -17.20019 0.0 
